Coordinates
version=1
nRows=6
nColumns=36
inDegrees=yes

Units are S.I. units (second, meters, Newtons, ...)
If the header above contains a line with 'inDegrees', this indicates whether rotational values are in degrees (yes) or radians (no).

endheader
time	pelvis_tilt	pelvis_list	pelvis_rotation	pelvis_tx	pelvis_ty	pelvis_tz	hip_flexion_r	hip_adduction_r	hip_rotation_r	knee_angle_r	knee_angle_r_beta	ankle_angle_r	subtalar_angle_r	mtp_angle_r	hip_flexion_l	hip_adduction_l	hip_rotation_l	knee_angle_l	knee_angle_l_beta	ankle_angle_l	subtalar_angle_l	mtp_angle_l	lumbar_extension	lumbar_bending	lumbar_rotation	arm_flex_r	arm_add_r	arm_rot_r	elbow_flex_r	pro_sup_r	arm_flex_l	arm_add_l	arm_rot_l	elbow_flex_l	pro_sup_l
      0.00000000	     -3.45147202	     -2.09257362	     -4.43996461	      0.31074106	      0.95290613	      0.03562431	      0.06729206	      7.85969013	      7.39320555	      1.64451450	      0.02870219	      6.09475989	     -8.56946165	     -6.56535371	     33.76601049	     -8.32031588	      3.67522520	     25.68960488	      0.44836819	     -1.75484509	    -15.76316629	     -6.56535371	      1.13281020	      5.36475376	     -7.07771356	     45.40911041	      2.97816713	     62.82628135	    123.90636915	     70.18406216	     37.14306074	      4.12426043	     66.15448623	    112.36750349	     82.39104875
      0.01666670	     -2.10308616	     -4.00918543	     -5.84660551	      0.30971889	      0.95269927	      0.03565343	     -1.30543566	      9.82548905	     10.84867075	      2.23385108	      0.03898806	      5.16419673	    -10.08622774	     -6.82332286	     32.92071086	    -11.60259902	      4.49020346	     22.95804519	      0.40069348	     -1.62413030	    -13.17580886	     -6.82332286	     -1.93738355	      8.60926307	     -4.11973991	     51.61262145	      0.26631143	     73.11146478	    131.10781220	     87.77766283	     39.18800528	      3.47283308	     65.06224964	    116.96192616	     94.19024616
      0.03333330	     -1.15188830	     -3.77810070	     -7.11285966	      0.30792480	      0.95494512	      0.03771843	     -2.45001643	      9.47725367	     12.26492464	      2.17756451	      0.03800567	      4.47263155	    -10.72927689	     -6.85536952	     31.33811237	    -12.60006658	      3.89908205	     19.61954774	      0.34242571	     -2.79814122	    -12.45331669	     -6.85536952	     -3.32293795	      8.37743533	     -3.41133098	     52.78444474	      2.58363300	     73.27876475	    130.56375724	     88.90942748	     40.03921493	      3.12692977	     65.17958680	    118.48551626	     95.73035551
      0.05000000	     -1.15559841	     -2.87233723	     -7.60966449	      0.30749227	      0.95818283	      0.03887747	     -2.34604833	      8.45194481	     12.05458008	      2.07637536	      0.03623959	      5.35695771	     -9.36416551	     -6.91659445	     31.01892848	    -12.50744116	      3.16952675	     17.31011274	      0.30211846	     -2.50782929	    -10.98204601	     -6.91659445	     -3.27515729	      7.60240457	     -3.79374373	     52.84048271	      4.62597457	     74.43180349	    128.59578756	     91.76103321	     39.45284044	      2.35098758	     63.96419316	    119.27840748	     98.93570737
      0.06666670	     -1.32337817	     -1.97635755	     -8.20376555	      0.30705603	      0.95826784	      0.03998700	     -2.09937664	      7.57383395	     12.56825088	      2.11133883	      0.03684981	      5.75369776	     -8.98077988	     -7.01996659	     30.90292384	    -12.13339112	      2.74937347	     15.79313049	      0.27564213	     -2.18826569	    -10.35022896	     -7.01996659	     -3.12898784	      6.56512822	     -3.19411394	     52.39333794	      5.35727487	     75.28343537	    127.94311415	     89.25189811	     39.52472866	      2.24785832	     63.98334853	    119.06993464	     95.63371966
      0.08333330	     -1.76802722	     -1.04918724	     -8.32507748	      0.30689804	      0.95383745	      0.04049910	     -1.39459806	      6.73756064	     12.78821263	      2.38484304	      0.04162336	      5.91446764	     -8.83779473	     -7.16113553	     31.44379348	    -11.58982351	      2.43027518	     15.29621638	      0.26696934	     -1.94126237	     -9.34367328	     -7.16113553	     -2.45628439	      5.67806189	     -3.20203853	     52.05714426	      6.41036082	     74.81465529	    126.69189003	     96.21746626	     39.70305745	      2.51527378	     63.89505544	    119.95299703	    102.15998627
